HIERARCHY
ROOT Hips
{
	OFFSET 0.000000 0.000000 0.000000
	CHANNELS 6 Xposition Yposition Zposition Zrotation Yrotation Xrotation 
	JOINT LowerBack
	{
		OFFSET 0.000000 0.000000 0.000000
		CHANNELS 3 Zrotation Yrotation Xrotation
		JOINT Spine
		{
			OFFSET 0.028270 2.035590 -0.193380
			CHANNELS 3 Zrotation Yrotation Xrotation
			JOINT Spine1
			{
				OFFSET 0.056720 2.048850 -0.042750
				CHANNELS 3 Zrotation Yrotation Xrotation
				JOINT Neck
				{
					OFFSET 0.000000 0.000000 0.000000
					CHANNELS 3 Zrotation Yrotation Xrotation
					JOINT Neck1
					{
						OFFSET -0.054170 1.746240 0.172020
						CHANNELS 3 Zrotation Yrotation Xrotation
						JOINT Head
						{
							OFFSET 0.104070 1.761360 -0.123970
							CHANNELS 3 Zrotation Yrotation Xrotation
							End Site
							{
								OFFSET 0.000000 0.000000 0.000000
							}
						}
					}
				}
				JOINT LeftShoulder
				{
					OFFSET 0.000000 0.000000 0.000000
					CHANNELS 3 Zrotation Yrotation Xrotation
					JOINT LeftArm
					{
						OFFSET 3.362410 1.200890 -0.311210
						CHANNELS 3 Zrotation Yrotation Xrotation
						JOINT LeftForeArm
						{
							OFFSET 4.983000 -0.000000 -0.000000
							CHANNELS 3 Zrotation Yrotation Xrotation
							JOINT LeftHand
							{
								OFFSET 3.483560 -0.000000 -0.000000
								CHANNELS 3 Zrotation Yrotation Xrotation
								JOINT LeftFingerBase
								{
									OFFSET 0.000000 0.000000 0.000000
									CHANNELS 3 Zrotation Yrotation Xrotation
									JOINT LeftHandIndex1
									{
										OFFSET 0.715260 -0.000000 -0.000000
										CHANNELS 3 Zrotation Yrotation Xrotation
										End Site
										{
											OFFSET 0.000000 0.000000 0.000000
										}
									}
								}
								JOINT LThumb
								{
									OFFSET 0.000000 0.000000 0.000000
									CHANNELS 3 Zrotation Yrotation Xrotation
									End Site
									{
										OFFSET 0.000000 0.000000 0.000000
									}
								}
							}
						}
					}
				}
				JOINT RightShoulder
				{
					OFFSET 0.000000 0.000000 0.000000
					CHANNELS 3 Zrotation Yrotation Xrotation
					JOINT RightArm
					{
						OFFSET -3.136600 1.374050 -0.404650
						CHANNELS 3 Zrotation Yrotation Xrotation
						JOINT RightForeArm
						{
							OFFSET -5.241900 -0.000000 -0.000000
							CHANNELS 3 Zrotation Yrotation Xrotation
							JOINT RightHand
							{
								OFFSET -3.444170 -0.000000 -0.000000
								CHANNELS 3 Zrotation Yrotation Xrotation
								JOINT RightFingerBase
								{
									OFFSET 0.000000 0.000000 0.000000
									CHANNELS 3 Zrotation Yrotation Xrotation
									JOINT RightHandIndex1
									{
										OFFSET -0.622530 -0.000000 -0.000000
										CHANNELS 3 Zrotation Yrotation Xrotation
										End Site
										{
											OFFSET 0.000000 0.000000 0.000000
										}
									}
								}
								JOINT RThumb
								{
									OFFSET 0.000000 0.000000 0.000000
									CHANNELS 3 Zrotation Yrotation Xrotation
									End Site
									{
										OFFSET 0.000000 0.000000 0.000000
									}
								}
							}
						}
					}
				}
			}
		}
	}
}
}
MOTION
Frames: 11
Frame Time: 0.008333
0.467310 15.599394 -0.098431 14.379326 82.328668 53.366207 6.327376 0.778498 7.966925 0.841726 0.764263 -0.998243 -3.933264 0.689369 0.632125 6.445413 -8.496233 -6.994377 -1.611105 -0.098771 -0.352305 0.000000 0.000000 0.000000 2.635800 13.941844 2.738385 -73.721490 14.869925 24.336698 -1.157871 -61.927491 0.007759 -5.155994 6.575907 -0.294907 0.021547 0.054998 0.000000 0.000000 0.000000 0.000000 0.000000 0.000000 0.000000 4.316861 -3.172698 -0.469019 63.566161 9.707260 7.038645 0.132191 85.208195 -0.050032 -9.136638 3.531184 -0.318687 0.171626 -0.392680 0.000000 0.000000 0.000000 0.000000 0.000000 0.000000 0.000000 
0.603190 15.621501 -0.083896 14.168778 82.295311 53.316047 5.927527 0.857936 7.939672 0.763651 0.857106 -1.002976 -3.894460 0.783354 0.655237 6.367127 -8.464878 -6.973741 -1.563016 -0.095476 -0.347086 0.000000 0.000000 0.000000 2.503661 14.210788 2.761972 -73.636576 15.450541 24.541365 -1.171329 -61.742045 0.007812 -5.356654 6.582472 -0.307031 0.024189 0.050744 0.000000 0.000000 0.000000 0.000000 0.000000 0.000000 0.000000 4.038010 -3.099819 -0.511319 63.138206 10.083127 7.153509 0.111098 85.916514 -0.050358 -9.096530 3.519370 -0.316690 0.172127 -0.396390 0.000000 0.000000 0.000000 0.000000 0.000000 0.000000 0.000000 
0.741265 15.642705 -0.070281 13.910349 82.283287 53.212496 5.543061 0.930644 7.897657 0.688925 0.942518 -1.012367 -3.858455 0.869973 0.676282 6.297553 -8.442303 -6.965080 -1.515042 -0.092044 -0.344704 0.000000 0.000000 0.000000 2.367329 14.475984 2.787312 -73.540845 16.026341 24.716430 -1.185801 -61.554284 0.007822 -5.549725 6.588577 -0.318754 0.026618 0.046630 0.000000 0.000000 0.000000 0.000000 0.000000 0.000000 0.000000 3.764991 -3.035960 -0.550025 62.700378 10.420378 7.237601 0.089635 86.638231 -0.050758 -9.067547 3.500804 -0.314493 0.172803 -0.400054 0.000000 0.000000 0.000000 0.000000 0.000000 0.000000 0.000000 
0.881525 15.662842 -0.057321 13.646685 82.292597 53.090332 5.169362 0.994465 7.845507 0.616723 1.018672 -1.025622 -3.824858 0.947427 0.694281 6.237354 -8.424282 -6.965678 -1.466722 -0.088472 -0.344385 0.000000 0.000000 0.000000 2.230911 14.731728 2.814614 -73.437140 16.599342 24.860169 -1.201307 -61.363393 0.007776 -5.732451 6.602414 -0.330276 0.028788 0.042549 0.000000 0.000000 0.000000 0.000000 0.000000 0.000000 0.000000 3.495413 -2.978189 -0.585583 62.262232 10.717720 7.293914 0.068201 87.362102 -0.051232 -9.050722 3.483601 -0.312896 0.173617 -0.403756 0.000000 0.000000 0.000000 0.000000 0.000000 0.000000 0.000000 
1.024199 15.681843 -0.045102 13.360559 82.324996 52.926846 4.810467 1.050307 7.785951 0.547633 1.086542 -1.041449 -3.794619 1.016639 0.711829 6.190018 -8.414424 -6.975926 -1.419089 -0.084828 -0.346257 0.000000 0.000000 0.000000 2.098981 14.984074 2.843533 -73.330489 17.156509 24.977939 -1.218521 -61.156383 0.007679 -5.912492 6.629676 -0.342398 0.030744 0.038393 0.000000 0.000000 0.000000 0.000000 0.000000 0.000000 0.000000 3.238871 -2.930440 -0.618441 61.818141 10.981295 7.324419 0.046890 88.086826 -0.051753 -9.041596 3.457570 -0.310799 0.174535 -0.407285 0.000000 0.000000 0.000000 0.000000 0.000000 0.000000 0.000000 
1.169430 15.699508 -0.033510 13.074639 82.380079 52.739777 4.463802 1.097505 7.721284 0.481074 1.145629 -1.059039 -3.767841 1.077122 0.729976 6.156928 -8.412224 -6.994520 -1.372227 -0.081133 -0.349945 0.000000 0.000000 0.000000 1.977253 15.234247 2.874012 -73.224572 17.693170 25.072195 -1.237701 -60.928849 0.007524 -6.091358 6.679238 -0.355719 0.032470 0.034038 0.000000 0.000000 0.000000 0.000000 0.000000 0.000000 0.000000 2.997370 -2.893034 -0.649346 61.373145 11.213186 7.332387 0.025955 88.805389 -0.052299 -9.037633 3.424432 -0.308302 0.175493 -0.410621 0.000000 0.000000 0.000000 0.000000 0.000000 0.000000 0.000000 
1.317395 15.715684 -0.022491 12.793116 82.457811 52.530627 4.129605 1.136472 7.651978 0.416988 1.196379 -1.078090 -3.744829 1.129313 0.749396 6.138516 -8.418625 -7.019693 -1.326325 -0.077429 -0.354909 0.000000 0.000000 0.000000 1.869100 15.480000 2.905553 -73.123388 18.209227 25.139208 -1.258912 -60.679792 0.007308 -6.272917 6.759390 -0.371139 0.034003 0.029369 0.000000 0.000000 0.000000 0.000000 0.000000 0.000000 0.000000 2.772350 -2.867293 -0.678709 60.931545 11.415539 7.320115 0.006046 89.512707 -0.052363 -9.034906 3.384616 -0.305306 0.176419 -0.413732 0.000000 0.000000 0.000000 0.000000 0.000000 0.000000 0.000000 
1.468243 15.730213 -0.012111 12.515668 82.558117 52.298536 3.808479 1.167862 7.576684 0.355356 1.239393 -1.098241 -3.725927 1.173801 0.772617 6.135803 -8.436201 -7.051872 -1.281782 -0.073740 -0.361243 0.000000 0.000000 0.000000 1.780202 15.728858 2.937849 -73.031166 18.694838 25.185447 -1.282497 -60.403056 0.007024 -6.458989 6.873869 -0.388960 0.035320 0.024329 0.000000 0.000000 0.000000 0.000000 0.000000 0.000000 0.000000 2.567580 -2.856017 -0.707504 60.494375 11.592197 7.289814 179.985761 89.792788 179.946647 -9.028694 3.335005 -0.301308 0.177235 -0.416536 0.000000 0.000000 0.000000 0.000000 0.000000 0.000000 0.000000 
1.622093 15.742876 -0.002256 12.259681 82.679880 52.062181 3.498541 1.191488 7.493957 0.295775 1.274467 -1.120039 -3.711067 1.210402 0.798609 6.146888 -8.464311 -7.088728 -1.238249 -0.070078 -0.368239 0.000000 0.000000 0.000000 1.710429 15.973626 2.970361 -72.948758 19.159921 25.200470 -1.307954 -60.108945 0.006662 -6.648264 7.027634 -0.409781 0.036431 0.018874 0.000000 0.000000 0.000000 0.000000 0.000000 0.000000 0.000000 2.378838 -2.858818 -0.735941 60.073148 11.742728 7.244554 179.966715 89.117327 179.946196 -9.015881 3.283086 -0.297012 0.177856 -0.419144 0.000000 0.000000 0.000000 0.000000 0.000000 0.000000 0.000000 
1.779079 15.753534 0.007048 12.026524 82.822780 51.825693 3.200048 1.207788 7.400666 0.238242 1.301898 -1.143935 -3.700311 1.239410 0.828257 6.170740 -8.504664 -7.130371 -1.195721 -0.066441 -0.375886 0.000000 0.000000 0.000000 1.660805 16.216768 3.002650 -72.878170 19.603750 25.183035 -1.335148 -59.800842 0.006226 -6.839069 7.218820 -0.433502 0.037309 0.013038 0.000000 0.000000 0.000000 0.000000 0.000000 0.000000 0.000000 2.205228 -2.877363 -0.764586 59.673011 11.869428 7.186477 179.948464 88.462819 179.945822 -8.993721 3.229945 -0.292216 0.178227 -0.421572 0.000000 0.000000 0.000000 0.000000 0.000000 0.000000 0.000000 
1.939358 15.762066 0.015606 11.799312 82.987528 51.578964 2.916601 1.218557 7.292309 0.183353 1.323198 -1.170603 -3.693843 1.262287 0.862669 6.206415 -8.559649 -7.177537 -1.154556 -0.062850 -0.384382 0.000000 0.000000 0.000000 1.634236 16.461313 3.034239 -72.823374 20.022307 25.134812 -1.364000 -59.477143 0.005708 -7.028830 7.437354 -0.459422 0.037925 0.006950 0.000000 0.000000 0.000000 0.000000 0.000000 0.000000 0.000000 2.047829 -2.913358 -0.793777 59.294847 11.971725 7.115340 179.930865 87.825427 179.945536 -8.960241 3.171530 -0.286619 0.178325 -0.423770 0.000000 0.000000 0.000000 0.000000 0.000000 0.000000 0.000000 
